<svg width="800" height="800" viewBox="0 0 800 800" fill="none" xmlns="http://www.w3.org/2000/svg">
<path d="M231.333 467.866C223.567 488.666 217 507.866 211.133 527.3C243.133 504.066 281.167 489.333 325.067 483.833C408.833 473.366 483.267 418.066 520.933 348.566L472.4 300.066L519.5 252.9L552.833 219.533C567.167 205.2 583.333 178.733 600.433 140.6C414 169.5 299.867 283.667 231.333 467.866ZM566.667 300.033L600 333.333C566.667 433.333 466.667 533.333 333.333 550C244.367 561.133 188.8 622.233 166.6 733.333H100C133.333 533.333 200 66.6665 700 66.6665C666.667 166.566 633.4 233.2 600.1 266.567L566.667 300.033Z" fill="white"/>
</svg>
