<svg width="34" height="33" viewBox="0 0 34 33" fill="none" xmlns="http://www.w3.org/2000/svg">
<path d="M33.1406 14.5064L19.054 0.834094C18.7856 0.569905 18.4659 0.360118 18.1133 0.216928C17.7607 0.0737379 17.3822 0 17 0C16.6178 0 16.2393 0.0737379 15.8867 0.216928C15.5341 0.360118 15.2144 0.569905 14.946 0.834094L0.859369 14.5064C0.587174 14.7669 0.371031 15.0772 0.223502 15.4195C0.0759724 15.7617 0 16.129 0 16.5C0 16.871 0.0759724 17.2383 0.223502 17.5805C0.371031 17.9228 0.587174 18.2331 0.859369 18.4936L14.946 32.1659C15.2144 32.4301 15.5341 32.6399 15.8867 32.7831C16.2393 32.9263 16.6178 33 17 33C17.3822 33 17.7607 32.9263 18.1133 32.7831C18.4659 32.6399 18.7856 32.4301 19.054 32.1659L33.1406 18.4936C33.4128 18.2331 33.629 17.9228 33.7765 17.5805C33.924 17.2383 34 16.871 34 16.5C34 16.129 33.924 15.7617 33.7765 15.4195C33.629 15.0772 33.4128 14.7669 33.1406 14.5064ZM17 29.3664L3.74371 16.5L17 3.6336L30.2563 16.5L17 29.3664Z" fill="white"/>
</svg>
