<svg width="34" height="34" viewBox="0 0 34 34" fill="none" xmlns="http://www.w3.org/2000/svg">
<path d="M31.7156 15.1273L18.8726 2.28435C18.628 2.03619 18.3364 1.83913 18.015 1.70462C17.6935 1.57012 17.3485 1.50085 17 1.50085C16.6515 1.50085 16.3065 1.57012 15.985 1.70462C15.6635 1.83913 15.372 2.03619 15.1273 2.28435L2.28435 15.1273C2.03619 15.372 1.83913 15.6635 1.70462 15.985C1.57012 16.3065 1.50085 16.6515 1.50085 17C1.50085 17.3485 1.57012 17.6935 1.70462 18.015C1.83913 18.3364 2.03619 18.628 2.28435 18.8726L15.1273 31.7156C15.372 31.9638 15.6635 32.1608 15.985 32.2953C16.3065 32.4298 16.6515 32.4991 17 32.4991C17.3485 32.4991 17.6935 32.4298 18.015 32.2953C18.3364 32.1608 18.628 31.9638 18.8726 31.7156L31.7156 18.8726C31.9638 18.628 32.1608 18.3364 32.2953 18.015C32.4298 17.6935 32.4991 17.3485 32.4991 17C32.4991 16.6515 32.4298 16.3065 32.2953 15.985C32.1608 15.6635 31.9638 15.372 31.7156 15.1273ZM17 29.0859L4.91404 17L17 4.91404L29.0859 17L17 29.0859Z" fill="white"/>
<path d="M20.8749 16.5433L17.4568 13.1252C17.3917 13.0592 17.3141 13.0067 17.2285 12.9709C17.1429 12.9351 17.0511 12.9167 16.9584 12.9167C16.8656 12.9167 16.7738 12.9351 16.6882 12.9709C16.6027 13.0067 16.5251 13.0592 16.46 13.1252L13.0419 16.5433C12.9759 16.6084 12.9234 16.686 12.8876 16.7716C12.8518 16.8571 12.8334 16.9489 12.8334 17.0417C12.8334 17.1344 12.8518 17.2263 12.8876 17.3118C12.9234 17.3974 12.9759 17.475 13.0419 17.5401L16.46 20.9582C16.5251 21.0242 16.6027 21.0767 16.6882 21.1125C16.7738 21.1483 16.8656 21.1667 16.9584 21.1667C17.0511 21.1667 17.1429 21.1483 17.2285 21.1125C17.3141 21.0767 17.3917 21.0242 17.4568 20.9582L20.8749 17.5401C20.9409 17.475 20.9933 17.3974 21.0291 17.3118C21.0649 17.2263 21.0834 17.1344 21.0834 17.0417C21.0834 16.9489 21.0649 16.8571 21.0291 16.7716C20.9933 16.686 20.9409 16.6084 20.8749 16.5433ZM16.9584 20.2583L13.7418 17.0417L16.9584 13.8251L20.175 17.0417L16.9584 20.2583Z" fill="white"/>
</svg>
