<?xml version="1.0" standalone="no"?>
<!DOCTYPE svg PUBLIC "-//W3C//DTD SVG 20010904//EN"
 "http://www.w3.org/TR/2001/REC-SVG-20010904/DTD/svg10.dtd">
<svg version="1.0" xmlns="http://www.w3.org/2000/svg"
 width="1920.000000pt" height="1280.000000pt" viewBox="0 0 1920.000000 1280.000000"
 preserveAspectRatio="xMidYMid meet">
<metadata>
Created by potrace 1.16, written by Peter Selinger 2001-2019
</metadata>
<g transform="translate(0.000000,1280.000000) scale(0.100000,-0.100000)"
fill="#000000" stroke="none">
<path d="M13484 11337 c-132 -78 -313 -184 -403 -236 l-162 -94 3 -66 3 -66
165 -96 c91 -53 242 -140 335 -194 94 -54 222 -128 285 -165 63 -37 282 -163
485 -280 204 -117 417 -241 475 -275 58 -35 181 -106 273 -159 164 -94 168
-96 193 -80 l24 16 -2 -353 -3 -354 -24 -3 c-13 -2 -27 0 -32 5 -4 4 -9 155
-10 336 -1 180 -5 327 -8 327 -6 0 -477 -272 -497 -287 -20 -16 -54 -33 -64
-33 -10 0 -146 78 -875 499 -121 70 -309 179 -417 242 -166 95 -198 117 -198
136 0 13 -2 23 -4 23 -3 0 -199 -113 -546 -315 -69 -40 -321 -186 -560 -325
-239 -139 -482 -281 -540 -314 l-105 -62 -3 -85 -3 -85 78 -44 c43 -24 100
-59 127 -77 26 -18 52 -33 56 -33 5 0 87 -46 182 -102 95 -56 212 -123 260
-150 48 -27 90 -54 93 -59 12 -18 37 -8 151 61 64 39 121 70 126 70 5 0 7 4 4
8 -3 5 0 9 7 9 7 0 103 54 215 119 207 121 235 137 404 234 53 30 94 58 91 64
-3 5 -1 6 5 3 13 -9 154 77 144 88 -4 5 -1 5 6 1 8 -5 60 21 135 65 67 40 124
76 127 79 3 3 10 6 15 7 23 4 124 71 117 78 -4 5 -2 5 5 1 15 -8 76 28 65 39
-4 5 -1 5 6 1 8 -5 21 -1 31 8 18 17 -40 49 1031 -569 277 -160 707 -410 746
-435 19 -12 28 -9 80 22 32 20 128 76 212 125 84 49 149 93 145 98 -5 4 -3 5
4 1 7 -4 29 4 50 17 21 13 70 41 110 62 40 21 69 43 66 48 -3 6 -2 8 3 4 5 -3
45 16 89 42 l80 47 3 86 3 86 -280 161 c-155 88 -283 161 -286 161 -3 0 -5
-29 -5 -64 0 -54 -3 -66 -19 -71 -42 -13 -51 2 -51 91 0 54 -4 87 -12 95 -7 6
-100 61 -207 123 -179 102 -222 133 -189 133 15 0 100 51 109 65 3 5 9 9 13 9
20 -3 26 0 20 12 -4 6 -4 9 1 5 14 -13 210 103 197 117 -4 5 -2 5 4 2 23 -13
172 71 157 88 -5 4 -3 5 4 2 6 -4 39 9 72 29 l62 37 -2 67 -2 67 -226 130
c-124 72 -559 323 -966 558 -407 234 -780 450 -830 479 -115 68 -151 86 -167
85 -7 -1 -121 -65 -254 -142z"/>
<path d="M6741 10156 c-7 -8 -11 -27 -9 -43 3 -25 11 -31 73 -52 133 -45 375
-39 500 13 31 13 35 19 35 51 0 48 -15 52 -120 32 -107 -21 -272 -22 -365 -2
-87 19 -100 19 -114 1z"/>
<path d="M16469 7970 c-15 -14 -54 -38 -88 -55 -33 -16 -61 -33 -61 -37 0 -5
-4 -8 -9 -8 -4 0 -53 -27 -109 -60 -55 -33 -105 -60 -111 -60 -6 0 -11 -3 -11
-7 0 -5 -18 -17 -40 -27 -22 -11 -40 -23 -40 -28 0 -4 -4 -8 -10 -8 -5 0 -47
-21 -93 -47 l-83 -46 0 -49 c1 -39 4 -47 16 -42 8 3 114 62 235 131 121 69
238 136 260 149 22 12 74 42 115 66 74 44 75 45 77 88 3 58 -14 72 -48 40z"/>
<path d="M10980 7938 l0 -54 88 -51 c280 -160 570 -328 590 -341 22 -14 22
-14 22 39 l0 54 -88 49 c-48 27 -94 55 -102 62 -8 6 -43 27 -78 45 -71 38 -72
39 -167 95 -144 84 -197 114 -204 114 -5 0 -20 9 -35 21 l-26 20 0 -53z"/>
<path d="M8210 7481 c-5 -11 -10 -49 -10 -84 0 -53 -3 -67 -20 -78 -23 -16
-43 -105 -38 -172 2 -35 7 -43 26 -45 18 -3 22 -10 22 -37 0 -25 6 -37 22 -46
13 -7 18 -14 12 -16 -7 -2 -9 -13 -6 -25 4 -18 2 -20 -16 -16 -23 6 -23 10 -7
-67 5 -22 11 -25 48 -25 74 0 79 8 81 152 1 104 3 125 16 124 9 -1 14 7 13 19
-6 50 -30 172 -37 183 -11 17 -44 15 -54 -5 -15 -25 -42 -9 -42 26 0 16 -3 37
-7 47 -5 14 -3 16 10 11 11 -4 25 1 37 13 11 11 25 20 30 20 17 0 11 19 -9 30
-30 16 -59 12 -71 -9z"/>
<path d="M9484 7318 c1 -44 -30 -49 -67 -12 l-26 26 -28 -28 c-41 -41 -71
-134 -55 -169 15 -33 38 -27 35 10 -1 15 5 41 14 58 15 30 16 30 30 11 9 -13
13 -40 11 -84 -3 -61 -2 -65 20 -68 14 -2 22 -10 22 -23 0 -22 -29 -26 -48 -7
-17 17 -16 -1 6 -103 13 -57 16 -94 10 -114 -11 -38 -13 -139 -4 -154 14 -21
34 -11 41 22 4 17 22 61 41 97 53 103 64 218 37 369 -5 30 -4 33 15 27 27 -9
38 11 18 33 -9 10 -16 33 -16 53 0 33 -31 88 -50 88 -4 0 -7 -15 -6 -32z"/>
<path d="M10417 6401 c-4 -16 -2 -56 4 -88 6 -32 12 -130 13 -218 l3 -160 34
-7 c52 -10 61 -11 101 -10 35 2 68 23 68 43 0 5 -16 9 -36 9 -34 0 -36 1 -29
27 8 35 35 305 35 365 l0 46 -59 -5 c-43 -4 -68 -1 -91 11 -18 9 -34 16 -35
16 -2 0 -5 -13 -8 -29z"/>
<path d="M7756 6305 c-9 -10 -14 -33 -13 -69 1 -38 -5 -62 -18 -82 -16 -25
-19 -47 -19 -144 1 -68 8 -154 20 -212 20 -105 30 -118 94 -118 26 0 29 4 38
48 11 56 5 118 -15 149 -9 13 -13 29 -10 38 4 8 2 17 -4 21 -15 9 -3 103 16
124 15 17 16 22 4 37 -9 11 -10 14 -1 9 25 -15 11 10 -20 36 -20 17 -29 31
-23 35 6 5 18 31 28 58 18 50 18 50 -4 68 -26 21 -53 22 -73 2z"/>
<path d="M9076 5438 c5 -24 9 -90 9 -148 0 -101 -1 -105 -22 -108 -21 -3 -23
1 -23 45 -1 71 -27 204 -43 220 -13 13 -19 13 -46 -2 -24 -12 -42 -36 -72 -98
-21 -44 -39 -87 -39 -94 0 -7 21 -28 47 -47 43 -31 50 -33 64 -20 20 18 42 10
59 -21 11 -20 11 -27 0 -40 -11 -13 -15 -12 -37 10 -14 13 -29 23 -33 20 -4
-3 -8 -51 -9 -108 0 -65 -6 -119 -16 -146 -8 -24 -15 -70 -15 -103 0 -32 -5
-80 -12 -105 -11 -46 -11 -46 23 -74 19 -16 42 -29 52 -29 29 0 32 28 4 54
l-25 24 24 108 c13 60 35 145 49 189 l25 80 -5 -70 c-2 -38 -5 -79 -6 -90 -5
-60 5 -177 15 -180 6 -2 32 -6 59 -10 55 -7 63 6 17 30 -40 20 -40 16 4 350 7
55 12 139 10 188 -1 48 0 87 3 87 3 0 22 -13 42 -29 48 -37 99 -63 111 -56 19
12 10 34 -23 54 -19 11 -64 52 -100 91 -80 83 -104 91 -91 28z"/>
<path d="M10365 5329 c-4 -6 -33 -9 -68 -8 l-62 3 -7 -40 c-3 -21 -10 -120
-14 -220 -7 -189 0 -246 33 -258 26 -10 38 10 25 39 -7 14 -12 39 -12 55 0 34
39 210 47 210 3 0 3 -24 0 -52 -4 -29 -4 -69 -1 -89 5 -31 11 -38 42 -47 45
-14 67 1 29 19 -32 15 -32 14 -7 158 28 161 25 280 -5 230z"/>
<path d="M5133 5066 c-182 -73 -543 -300 -543 -340 0 -7 42 -32 93 -56 78 -38
105 -58 182 -135 76 -77 140 -124 420 -311 250 -167 350 -228 412 -252 45 -18
94 -32 109 -32 107 0 516 203 621 308 48 48 50 66 12 115 -63 81 -188 223
-251 285 -64 63 -64 63 -75 39 -30 -65 -348 -261 -541 -333 -101 -39 -118 -35
-256 54 -145 95 -267 165 -321 186 -22 9 -80 24 -130 35 -84 17 -208 62 -229
82 -16 15 25 38 66 39 21 0 74 -7 118 -16 l80 -16 57 53 c127 115 290 220 391
250 54 16 42 28 -34 36 -58 6 -110 22 -72 23 9 0 20 5 23 10 13 20 -52 9 -132
-24z"/>
<path d="M4635 4344 c-81 -87 -9 -341 115 -404 48 -24 81 -25 144 -4 l49 17
-7 75 c-13 140 -71 250 -163 311 -59 40 -105 41 -138 5z m107 -109 c-2 -17 -1
-17 8 -5 9 13 12 13 25 -3 7 -11 11 -26 8 -35 -4 -9 -2 -13 4 -9 6 4 17 0 24
-9 10 -13 10 -17 -1 -24 -12 -7 -11 -10 3 -16 9 -3 17 -15 17 -26 0 -18 -2
-19 -17 -7 -14 12 -14 9 2 -18 39 -67 -26 -112 -89 -62 -59 47 -93 179 -57
223 21 25 77 18 73 -9z"/>
<path d="M3747 4310 c-142 -44 -395 -191 -488 -283 -66 -67 -142 -155 -161
-190 -10 -18 -18 -45 -18 -62 0 -17 -6 -40 -14 -51 -22 -31 -56 -139 -56 -177
0 -21 8 -41 20 -52 15 -14 20 -31 20 -74 0 -99 76 -221 157 -252 41 -15 87
-10 138 15 l47 25 97 -78 c120 -97 254 -187 350 -235 80 -41 276 -126 289
-126 4 0 13 -19 19 -42 17 -61 65 -132 114 -168 54 -39 116 -41 181 -6 44 23
47 24 109 9 164 -38 397 35 570 178 70 59 132 147 129 184 -3 41 -3 77 0 138
2 47 -3 68 -29 121 -47 96 -112 179 -187 237 -36 29 -134 129 -218 223 -191
214 -313 321 -513 449 -102 66 -323 175 -419 207 l-80 27 -57 -17z m977 -1461
c69 -14 100 -16 139 -8 27 5 52 9 54 9 2 0 3 -10 1 -22 -4 -32 -70 -63 -129
-61 -51 1 -125 36 -179 83 l-35 31 30 -6 c17 -4 70 -15 119 -26z"/>
<path d="M6935 3763 c-30 -56 -30 -56 -230 -167 l-200 -111 -90 0 c-101 0
-167 19 -205 60 -13 14 -26 25 -30 25 -9 0 5 -133 17 -155 28 -51 93 -85 162
-85 82 0 256 63 419 153 101 56 212 151 212 182 0 16 -6 12 -30 -17 -27 -33
-87 -78 -104 -78 -17 0 -2 43 29 86 43 60 87 142 83 155 -2 5 -16 -17 -33 -48z
m-650 -283 c22 -7 98 -16 170 -19 153 -7 164 -18 71 -66 -48 -24 -75 -31 -138
-34 -92 -4 -133 9 -153 50 -19 36 -21 106 -2 92 6 -6 30 -16 52 -23z"/>
<path d="M5857 3649 c-32 -19 -51 -71 -51 -144 -1 -58 4 -81 30 -135 34 -73
82 -126 131 -146 41 -18 58 -17 123 2 l53 16 -6 82 c-3 45 -13 104 -22 131
-46 134 -183 238 -258 194z m107 -120 c19 -15 25 -27 21 -40 -5 -14 -2 -17 8
-13 19 7 32 -27 15 -38 -10 -6 -9 -8 3 -8 10 0 19 -11 21 -25 6 -28 -1 -31
-22 -12 -11 9 -11 8 0 -8 8 -11 18 -22 22 -25 3 -3 0 -20 -7 -38 -24 -55 -90
-40 -133 30 -35 57 -46 119 -28 161 12 31 20 37 44 37 16 0 41 -9 56 -21z"/>
</g>
</svg>
